/* XPM */
static char * player1_xpm[] = {
"31 35 26 1",
" 	c None",
".	c #000000",
"+	c #3868F0",
"@	c #583018",
"#	c #602018",
"$	c #6088F0",
"%	c #704838",
"&	c #785848",
"*	c #D8B8A0",
"=	c #F8C0A0",
"-	c #F8F8F8",
";	c #FFFFFF",
">	c #602808",
",	c #684020",
"'	c #703010",
")	c #904018",
"!	c #907060",
"~	c #C0A088",
"{	c #C85820",
"]	c #B05820",
"^	c #782820",
"/	c #F35A76",
"(	c #F0D0B8",
"_	c #F87828",
":	c #684000",
"<	c #CDA9B0",
"                               ",
"                               ",
"              ,,,              ",
"             ,]]],             ",
"            ,]]],,             ",
"          >,^]])^,>>           ",
"         >)]]]]))]])>          ",
"        >)]]]]]]]]]])>         ",
"     >>>~~))~((~]]]]])>        ",
"    >]]'((**((((*]])'''>>      ",
"   >](('((((((((())']]]]]>     ",
"   >(~&>(****((**)'~((((]]>    ",
"   >*!*>(****((**)'&&&&~(]>    ",
"   >*!*>'****>'**)'~***!*]>    ",
"   >*!*'~((((~~(()'~&&*!*)>    ",
"   >~*'((((((((!~~'~!**!*)>    ",
"    >~'~~>>>>~~>~~'~!!!*~)>    ",
"     >>>>~~~~>>!~~)'~~~~)>     ",
"       >!~~~~~~~~)^^'>>>>      ",
"        >>!!!!!!'''>>          ",
"          >>>>>>>>>>           ",
"          >~))~)))_{>          ",
"         ,>----=_)''>          ",
"        ,~>=__=-_)'>>          ",
"        ,(>{_____,,),          ",
"        ,~>>>>>>,~(~,          ",
"         ,>)]]]],~~(,          ",
"        >>>>>>>>,,!~,          ",
"        >(((>>'>>,,,           ",
"         >~~~>>>>!!>           ",
"          >>!!>~~~!>           ",
"            >>>!!!>            ",
"               >>>             ",
"                               ",
"                               "};
